<svg aria-hidden="true" style="position: absolute; width: 0; height: 0; overflow: hidden;" version="1.1" xmlns="http://www.w3.org/2000/svg" xmlns:xlink="http://www.w3.org/1999/xlink">
    <defs>
        <symbol id="icon-rate-star" viewBox="0 0 34 32">
            <path d="M11.61 9.839l-9.452 1.37-0.167 0.034c-0.253 0.067-0.484 0.201-0.669 0.386s-0.317 0.417-0.384 0.671c-0.066 0.254-0.064 0.52 0.006 0.773s0.207 0.482 0.395 0.664l6.847 6.665-1.615 9.415-0.019 0.163c-0.016 0.262 0.039 0.524 0.158 0.758s0.298 0.433 0.518 0.575c0.221 0.142 0.475 0.223 0.737 0.235s0.523-0.047 0.755-0.169l8.453-4.444 8.434 4.444 0.148 0.068c0.245 0.096 0.51 0.126 0.77 0.086s0.504-0.149 0.708-0.315 0.36-0.383 0.452-0.629c0.092-0.246 0.117-0.512 0.073-0.771l-1.616-9.415 6.851-6.667 0.116-0.126c0.165-0.203 0.273-0.447 0.314-0.705s0.011-0.524-0.084-0.768c-0.095-0.244-0.254-0.458-0.459-0.621s-0.45-0.268-0.709-0.306l-9.452-1.372-4.225-8.563c-0.122-0.248-0.311-0.457-0.546-0.603s-0.506-0.224-0.782-0.224c-0.277 0-0.548 0.077-0.782 0.224s-0.424 0.355-0.546 0.603l-4.227 8.563z"></path>
        </symbol>
        <symbol id="icon-account" viewBox="0 0 32 32">
            <path fill="none" stroke="#1a1a1a" style="stroke: var(--color1, #1a1a1a)" stroke-width="2" stroke-miterlimit="4" stroke-linecap="round" stroke-linejoin="round" d="M4 16c0 1.576 0.31 3.136 0.913 4.592s1.487 2.779 2.601 3.893c1.114 1.114 2.437 1.998 3.893 2.601s3.016 0.913 4.592 0.913c1.576 0 3.136-0.31 4.592-0.913s2.779-1.487 3.893-2.601c1.114-1.114 1.998-2.437 2.601-3.893s0.913-3.016 0.913-4.592-0.31-3.136-0.913-4.592c-0.603-1.456-1.487-2.779-2.601-3.893s-2.437-1.998-3.893-2.601c-1.456-0.603-3.016-0.913-4.592-0.913s-3.136 0.31-4.592 0.913c-1.456 0.603-2.779 1.487-3.893 2.601s-1.998 2.437-2.601 3.893c-0.603 1.456-0.913 3.016-0.913 4.592z"></path>
            <path fill="none" stroke="#1a1a1a" style="stroke: var(--color1, #1a1a1a)" stroke-width="2" stroke-miterlimit="4" stroke-linecap="round" stroke-linejoin="round" d="M12 13.333c0 1.061 0.421 2.078 1.172 2.828s1.768 1.172 2.828 1.172c1.061 0 2.078-0.421 2.828-1.172s1.172-1.768 1.172-2.828c0-1.061-0.421-2.078-1.172-2.828s-1.768-1.172-2.828-1.172c-1.061 0-2.078 0.421-2.828 1.172s-1.172 1.768-1.172 2.828z"></path>
            <path fill="none" stroke="#1a1a1a" style="stroke: var(--color1, #1a1a1a)" stroke-width="2" stroke-miterlimit="4" stroke-linecap="round" stroke-linejoin="round" d="M8.224 25.132c0.33-1.098 1.005-2.061 1.926-2.745s2.037-1.054 3.184-1.053h5.333c1.148-0 2.266 0.37 3.187 1.056s1.596 1.651 1.925 2.751"></path>
        </symbol>
        <symbol id="icon-arrow" viewBox="0 0 24 24">
            <path d="M5 12H19" stroke="white" stroke-width="1.5" stroke-linecap="round" stroke-linejoin="round"/>
            <path d="M15 16L19 12" stroke="white" stroke-width="1.5" stroke-linecap="round" stroke-linejoin="round"/>
            <path d="M15 8L19 12" stroke="white" stroke-width="1.5" stroke-linecap="round" stroke-linejoin="round"/>
        </symbol>
        <symbol id="icon-basket" viewBox="0 0 32 32">
            <path fill="none" stroke="#1a1a1a" style="stroke: var(--color1, #1a1a1a)" stroke-width="2" stroke-miterlimit="4" stroke-linecap="round" stroke-linejoin="round" d="M8.443 10.667h15.119c0.384-0 0.764 0.083 1.114 0.244s0.66 0.395 0.91 0.687 0.435 0.634 0.54 1.004c0.106 0.37 0.13 0.758 0.072 1.138l-1.673 10.869c-0.145 0.945-0.624 1.806-1.349 2.428s-1.65 0.964-2.605 0.964h-9.136c-0.955 0-1.879-0.342-2.604-0.964s-1.204-1.483-1.349-2.428l-1.673-10.869c-0.058-0.38-0.034-0.768 0.072-1.138s0.29-0.712 0.54-1.004c0.25-0.292 0.561-0.526 0.91-0.687s0.729-0.244 1.114-0.244z"></path>
            <path fill="none" stroke="#1a1a1a" style="stroke: var(--color1, #1a1a1a)" stroke-width="2" stroke-miterlimit="4" stroke-linecap="round" stroke-linejoin="round" d="M12 14.667v-6.667c0-1.061 0.421-2.078 1.172-2.828s1.768-1.172 2.828-1.172c1.061 0 2.078 0.421 2.828 1.172s1.172 1.768 1.172 2.828v6.667"></path>
        </symbol>
        <symbol id="icon-clock" viewBox="0 0 34 32">
            <path stroke-width="2.6667" stroke-miterlimit="4" stroke-linecap="round" stroke-linejoin="round" d="M4.888 16c0 1.576 0.31 3.136 0.913 4.592s1.487 2.779 2.601 3.893 2.437 1.998 3.893 2.601c1.456 0.603 3.016 0.913 4.592 0.913s3.136-0.31 4.592-0.913c1.456-0.603 2.779-1.487 3.893-2.601s1.998-2.437 2.601-3.893c0.603-1.456 0.913-3.016 0.913-4.592 0-3.183-1.264-6.235-3.515-8.485s-5.303-3.515-8.485-3.515c-3.183 0-6.235 1.264-8.485 3.515s-3.515 5.303-3.515 8.485z"></path>
            <path stroke-width="2.6667" stroke-miterlimit="4" stroke-linecap="round" stroke-linejoin="round" d="M16.888 9.333v6.667l4 4"></path>
        </symbol>
        <symbol id="icon-gift" viewBox="0 0 34 32">
            <path stroke-width="0.3448" stroke-miterlimit="4" stroke-linecap="butt" stroke-linejoin="round" d="M7.149 15.051c-0.366 0.018-0.732 0.037-1.098 0.056-0.064 0.004-0.123-0.005-0.177-0.024-0.013 0.009-0.026 0.017-0.039 0.024v0c-0.102 0.056-0.223 0.069-0.335 0.037l-0.006-0.002 0-0c-0.108-0.036-0.198-0.111-0.253-0.211-0.053-0.097-0.069-0.209-0.044-0.317 0.184-1.293 0.216-2.603 0.094-3.903M7.149 15.051l0.697 12.672c6.585-0.608 13.21-0.665 19.805-0.171 0.004 0 0.009 0 0.013 0 0.239 0 0.385-0.162 0.421-0.341 0.028-0.143-0.011-0.312-0.134-0.424-0.688-3.912-1.151-7.86-1.389-11.825-0.001-0.064-0.014-0.122-0.037-0.174 0.667 0.015 1.335 0.032 2.002 0.052v0h0.005c0.157 0 0.279-0.073 0.352-0.178 0.032-0.019 0.061-0.042 0.088-0.068 0.083-0.082 0.129-0.194 0.129-0.311 0-0.007-0-0.014-0.001-0.020l-0.422-3.587c0.011-0.039 0.017-0.079 0.017-0.12 0-0.117-0.046-0.229-0.129-0.311s-0.193-0.128-0.31-0.129c-1.278-0.022-2.557-0.039-3.835-0.052 0.5-0.83 1.020-2.098 1.113-3.223 0.052-0.627-0.027-1.235-0.345-1.696-0.324-0.471-0.872-0.757-1.685-0.779v-0l-0.009 0c-1.328 0.033-2.63 0.369-3.809 0.981-0.795 0.361-1.513 0.863-2.121 1.479-0.591-0.624-1.292-1.14-2.072-1.52-1.231-0.684-2.619-1.038-4.028-1.026-0.674-0.034-1.341 0.16-1.892 0.551-0.552 0.392-0.957 0.958-1.147 1.608-0.002 0.007-0.004 0.015-0.005 0.022-0.113 0.738-0.046 1.492 0.194 2.198 0.181 0.532 0.456 1.026 0.811 1.457-1.221 0.021-2.442 0.046-3.664 0.075-0.166 0.001-0.291 0.085-0.361 0.2-0.079 0.080-0.121 0.191-0.109 0.32M7.149 15.051c-0.003 0.020-0.005 0.040-0.006 0.060M7.149 15.051l-0.006 0.060M5.292 10.711l0.172-0.016M5.292 10.711l0.172-0.016M5.463 10.695c-0.008-0.088 0.023-0.154 0.074-0.196l-0.171 4.148c0.187-1.309 0.22-2.635 0.096-3.952zM7.144 15.112c-0.163 4.040-0.084 8.085 0.236 12.116M7.144 15.112l0.702 12.611c-0.126 0.012-0.237-0.028-0.318-0.107-0.070-0.068-0.107-0.156-0.121-0.241M7.379 27.227c0.001 0.052 0.010 0.102 0.028 0.148M7.379 27.227c-0-0.003-0-0.005-0-0.008h0.172l-0.172 0.014c-0-0.002-0-0.004-0-0.006zM7.407 27.375c-0.002-0.009-0.003-0.018-0.004-0.027l0.171-0.018-0.157 0.072c-0.004-0.009-0.008-0.018-0.011-0.027zM17.378 14.74c2.781-0.032 5.561-0.022 8.342 0.032-0.028 0.060-0.042 0.13-0.037 0.206 0.048 0.834 0.107 1.668 0.175 2.5-2.793-0.12-5.586-0.189-8.379-0.206l-0.1-2.532zM8.024 15.118c0-0.038-0.004-0.074-0.012-0.108 2.829-0.13 5.657-0.217 8.486-0.258l0.099 2.517c-2.88-0.006-5.76 0.043-8.639 0.146 0.013-0.764 0.036-1.527 0.066-2.29h0v-0.007zM10.533 10.098c-0.008-0.034-0.021-0.069-0.038-0.102 0.010-0.057-0.009-0.116-0.053-0.156-0.462-0.426-0.805-0.965-0.997-1.563-0.191-0.595-0.225-1.23-0.099-1.842 0.201-0.595 0.624-0.949 1.147-1.142 0.532-0.196 1.167-0.224 1.761-0.156 1.189 0.139 2.329 0.551 3.331 1.205v0l0.003 0.002c0.301 0.187 0.909 0.609 1.422 1.11-0.099 0.127-0.194 0.258-0.285 0.393-0.243 0.359-0.434 0.932-0.4 1.436 0.017 0.255 0.092 0.507 0.264 0.702 0.017 0.019 0.034 0.037 0.053 0.055-2.036 0.008-4.073 0.028-6.11 0.058zM23.409 10.054c-1.713-0.014-3.426-0.020-5.14-0.019 0.167-0.15 0.279-0.345 0.345-0.555 0.15-0.476 0.076-1.057-0.147-1.479-0.002-0.003-0.004-0.007-0.006-0.010-0.101-0.163-0.208-0.322-0.321-0.476 0.28-0.281 0.585-0.534 0.913-0.757 0.94-0.629 1.988-1.082 3.091-1.335l0.002-0c0.533-0.128 1.185-0.231 1.694-0.118 0.25 0.055 0.453 0.16 0.593 0.328 0.139 0.166 0.233 0.413 0.231 0.786-0.056 1.254-0.469 2.466-1.19 3.493h-0l-0.002 0.003c-0.030 0.045-0.051 0.092-0.063 0.14zM25.933 18.362c0.25 2.767 0.61 5.524 1.079 8.263-3.056-0.212-6.118-0.305-9.179-0.281 0.001-0.016 0.002-0.033 0.001-0.050l-0-0.001-0.321-8.139c2.807 0.017 5.614 0.087 8.42 0.209zM17.287 8.636l0 0 0.003-0.006c0.087-0.173 0.188-0.338 0.303-0.493 0.128 0.195 0.215 0.383 0.25 0.558 0.043 0.22 0.005 0.42-0.152 0.602-0.112 0.127-0.187 0.139-0.235 0.129-0.061-0.012-0.155-0.072-0.273-0.241-0.024-0.189 0.012-0.381 0.104-0.548zM8.228 26.807c-0.213-2.832-0.308-5.672-0.282-8.511 2.895-0.105 5.791-0.154 8.686-0.147l0.322 8.153c0 0.018 0.001 0.035 0.003 0.051-2.913 0.044-5.824 0.195-8.728 0.453zM28.179 13.95c-7.356-0.207-14.706-0.116-22.048 0.273 0.121-1.049 0.144-2.108 0.070-3.162 7.203-0.159 14.413-0.183 21.629-0.072l0.348 2.961z"></path>
        </symbol>
        <symbol id="icon-search" viewBox="0 0 32 32">
            <path fill="none" stroke="#1a1a1a" style="stroke: var(--color1, #1a1a1a)" stroke-width="2" stroke-miterlimit="4" stroke-linecap="round" stroke-linejoin="round" d="M4 13.333c0 1.226 0.241 2.439 0.71 3.572s1.157 2.161 2.023 3.028c0.867 0.867 1.896 1.554 3.028 2.023s2.346 0.71 3.572 0.71c1.226 0 2.439-0.241 3.572-0.71s2.161-1.157 3.028-2.023c0.867-0.867 1.554-1.895 2.023-3.028s0.71-2.346 0.71-3.572c0-1.226-0.241-2.439-0.71-3.572s-1.157-2.161-2.023-3.028c-0.867-0.867-1.895-1.554-3.028-2.023s-2.346-0.71-3.572-0.71c-1.226 0-2.439 0.241-3.572 0.71s-2.161 1.157-3.028 2.023c-0.867 0.867-1.554 1.896-2.023 3.028s-0.71 2.346-0.71 3.572z"></path>
            <path fill="none" stroke="#1a1a1a" style="stroke: var(--color1, #1a1a1a)" stroke-width="2" stroke-miterlimit="4" stroke-linecap="round" stroke-linejoin="round" d="M28 28l-8-8"></path>
        </symbol>
        <symbol id="icon-star" viewBox="0 0 33 32">
            <path d="M13.393 12.93h-6.342c-0.051 0-0.101 0.013-0.145 0.036-0.099 0.025-0.184 0.096-0.225 0.186-0.023 0.050-0.032 0.11-0.019 0.171s0.050 0.116 0.103 0.159c1.827 1.462 3.609 2.961 5.346 4.499l-1.728 6.199c-0.001 0.004-0.002 0.009-0.003 0.013-0.010 0.061-0.001 0.123 0.025 0.179-0.013 0.074 0.001 0.15 0.040 0.214 0.042 0.070 0.111 0.121 0.191 0.14s0.163 0.007 0.233-0.035c1.862-1.088 3.655-2.291 5.369-3.6 1.821 1.281 3.694 2.476 5.619 3.586 0.002 0.001 0.003 0.002 0.005 0.003s0.004 0.002 0.005 0.003c0.009 0.004 0.018 0.008 0.027 0.011 0.057 0.053 0.132 0.082 0.21 0.082 0.082 0 0.16-0.032 0.218-0.090s0.090-0.136 0.090-0.218v-0c-0.008-2.188-0.37-4.361-1.072-6.433l4.448-4.412c0.056-0.056 0.087-0.125 0.090-0.196 0.003-0.057-0.012-0.111-0.037-0.157-0.010-0.063-0.040-0.122-0.086-0.168-0.058-0.058-0.136-0.090-0.218-0.090h-0c-2.068 0.005-4.134-0.109-6.189-0.342-0.056-0.053-0.129-0.084-0.206-0.085l-0.045-0.005c-0.312-1.822-0.936-3.578-1.843-5.189-0.002-0.004-0.005-0.008-0.008-0.012-0.005-0.006-0.009-0.012-0.014-0.018-0.055-0.078-0.146-0.126-0.24-0.135-0.101-0.009-0.211 0.028-0.286 0.13l-0.001 0.002c-1.25 1.766-2.358 3.629-3.312 5.572zM13.983 13.135c0.862-1.749 1.85-3.432 2.955-5.038 0.727 1.388 1.241 2.878 1.525 4.42l-0.949-0.096c-0.006-0.001-0.011-0.001-0.017-0.001-0.080 0.003-0.155 0.036-0.211 0.092s-0.089 0.132-0.092 0.211h-0v0.005c0 0.082 0.032 0.16 0.090 0.218v0c0.056 0.056 0.132 0.088 0.211 0.090l1.244 0.126c0.047 0.042 0.109 0.069 0.181 0.076 1.987 0.24 3.986 0.37 5.988 0.388l-4.154 4.12c-0 0-0.001 0.001-0.001 0.001-0.066 0.063-0.096 0.143-0.091 0.223 0.004 0.067 0.030 0.127 0.068 0.175 0.641 1.864 0.997 3.812 1.057 5.78-1.829-1.075-3.614-2.223-5.355-3.447-0.034-0.024-0.070-0.042-0.109-0.051-0.086-0.038-0.186-0.029-0.275 0.038l-0 0c-1.578 1.209-3.222 2.329-4.925 3.355l1.525-5.372 1.36 1.152c0.028 0.028 0.061 0.050 0.097 0.065 0.038 0.016 0.079 0.025 0.12 0.025s0.082-0.008 0.121-0.025 0.073-0.040 0.101-0.070l0 0 0.002-0.003c0.053-0.058 0.082-0.134 0.082-0.212s-0.029-0.154-0.082-0.212c-0.004-0.004-0.007-0.008-0.011-0.011l-1.739-1.467c-0.010-0.013-0.022-0.025-0.034-0.036l-0.001-0.001c-1.573-1.414-3.183-2.783-4.831-4.108h5.86c0.082 0 0.16-0.032 0.218-0.090s0.090-0.136 0.090-0.218c0-0.035-0.006-0.070-0.018-0.103z"></path>
        </symbol>
        <symbol id="icon-tiktok" viewBox="0 0 32 32">
            <path d="M28.647 7.311c-1.567-0.002-3.068-0.626-4.175-1.735s-1.729-2.611-1.729-4.178c0-0.238-0.095-0.467-0.263-0.635s-0.397-0.263-0.635-0.263h-4.875c-0.238 0-0.467 0.095-0.635 0.263s-0.263 0.397-0.263 0.635v19.952c0 0.686-0.203 1.357-0.585 1.927s-0.923 1.015-1.556 1.277c-0.634 0.263-1.331 0.331-2.004 0.197s-1.291-0.464-1.776-0.949c-0.485-0.485-0.815-1.103-0.949-1.776s-0.065-1.37 0.197-2.004c0.262-0.634 0.707-1.175 1.277-1.557s1.241-0.584 1.927-0.584c0.238 0 0.467-0.095 0.635-0.263s0.263-0.397 0.263-0.635v-4.875c0-0.238-0.095-0.467-0.263-0.635s-0.397-0.263-0.635-0.263c-2.008-0.002-3.972 0.592-5.642 1.707s-2.973 2.7-3.742 4.554c-0.769 1.855-0.971 3.896-0.58 5.866s1.358 3.779 2.778 5.199c1.42 1.42 3.229 2.387 5.199 2.778s4.011 0.19 5.866-0.58c1.855-0.769 3.44-2.072 4.554-3.742s1.709-3.634 1.707-5.642v-8.828c1.818 0.964 3.846 1.464 5.904 1.456 0.238 0 0.467-0.095 0.635-0.263s0.263-0.397 0.263-0.635v-4.861c0.001-0.119-0.021-0.237-0.066-0.347s-0.111-0.21-0.194-0.295c-0.084-0.084-0.183-0.151-0.293-0.197s-0.227-0.069-0.346-0.069zM27.748 12.137c-1.944-0.157-3.808-0.842-5.391-1.981-0.135-0.101-0.295-0.162-0.463-0.177s-0.336 0.019-0.486 0.096c-0.15 0.077-0.275 0.194-0.361 0.339s-0.13 0.31-0.127 0.479v10.459c0.003 1.611-0.461 3.188-1.336 4.54s-2.122 2.422-3.592 3.081-3.099 0.876-4.691 0.628c-1.591-0.248-3.077-0.952-4.276-2.027s-2.062-2.474-2.483-4.029c-0.421-1.555-0.383-3.198 0.111-4.731s1.42-2.891 2.669-3.908c1.249-1.017 2.765-1.651 4.366-1.825v3.078c-0.991 0.174-1.912 0.627-2.655 1.306s-1.275 1.557-1.536 2.529c-0.261 0.972-0.238 1.998 0.064 2.958s0.873 1.813 1.645 2.46c0.771 0.646 1.711 1.059 2.709 1.19s2.012-0.027 2.924-0.453 1.682-1.104 2.222-1.954c0.539-0.85 0.825-1.836 0.823-2.842v-19.054h3.1c0.209 1.715 0.986 3.31 2.208 4.531s2.817 1.999 4.531 2.208l0.027 3.1z"></path>
        </symbol>
        <symbol id="icon-twitter" viewBox="0 0 32 32">
            <path d="M30.39 6.607c-0.995 0.432-2.045 0.72-3.121 0.857l0.368 1.334c1.416-0.866 2.476-2.209 2.992-3.786 0.027-0.134 0.016-0.272-0.032-0.4s-0.13-0.24-0.237-0.324-0.236-0.136-0.372-0.151c-0.136-0.015-0.273 0.008-0.396 0.067-1.14 0.666-2.382 1.139-3.676 1.401l0.698 0.184c-0.783-0.83-1.763-1.45-2.85-1.8s-2.244-0.422-3.364-0.206c-1.121 0.216-2.169 0.711-3.048 1.439s-1.559 1.667-1.979 2.729c-0.504 1.295-0.606 2.712-0.294 4.066l0.691-0.904c-2.318-0.132-4.584-0.745-6.653-1.8s-3.896-2.529-5.364-4.328c-0.080-0.074-0.175-0.13-0.279-0.163s-0.214-0.042-0.322-0.028c-0.108 0.015-0.211 0.053-0.303 0.113s-0.168 0.139-0.225 0.232c-0.85 1.505-1.102 3.275-0.706 4.957s1.41 3.154 2.842 4.123l0.368-1.334c-0.835-0.038-1.651-0.264-2.386-0.662-0.109-0.060-0.232-0.091-0.356-0.091s-0.247 0.032-0.356 0.093c-0.109 0.061-0.2 0.148-0.266 0.254s-0.104 0.226-0.11 0.351c-0.003 1.568 0.53 3.089 1.512 4.311s2.353 2.071 3.884 2.405v-1.382c-0.77 0.203-1.575 0.238-2.36 0.103-0.5-0.088-1.070 0.32-0.882 0.882 0.443 1.349 1.292 2.527 2.43 3.375s2.511 1.324 3.93 1.363l-0.507-1.224c-2.413 1.836-5.444 2.662-8.455 2.305-0.735-0.084-0.912 0.985-0.368 1.334 2.51 1.573 5.362 2.518 8.314 2.755s5.919-0.24 8.647-1.392c4.334-1.838 7.639-5.514 9.378-9.87 0.944-2.36 1.38-4.893 1.279-7.433l-0.368 0.621c1.282-0.934 2.393-2.083 3.283-3.397 0.518-0.768-0.735-1.47-1.235-0.735-0.467 0.683-1.001 1.318-1.595 1.893-0.294 0.285-0.603 0.554-0.926 0.805-0.163 0.106-0.315 0.229-0.452 0.368-0.134 0.22-0.183 0.481-0.14 0.735 0.031 1.126-0.057 2.252-0.261 3.36-0.416 2.224-1.259 4.346-2.481 6.249-1.336 2.095-3.14 3.851-5.27 5.13s-4.528 2.046-7.005 2.241c-3.673 0.303-7.345-0.6-10.458-2.573l-0.368 1.338c3.397 0.364 6.801-0.614 9.488-2.724 0.522-0.404 0.052-1.206-0.507-1.224-1.106-0.030-2.176-0.399-3.066-1.056s-1.557-1.572-1.911-2.62l-0.882 0.882c1.035 0.194 2.101 0.159 3.121-0.103 0.665-0.173 0.702-1.235 0-1.382-1.228-0.252-2.331-0.922-3.12-1.896s-1.217-2.191-1.21-3.445l-1.070 0.621c0.959 0.517 2.022 0.81 3.11 0.857 0.761 0.033 0.912-0.963 0.368-1.338-1.113-0.767-1.898-1.923-2.201-3.24s-0.103-2.7 0.562-3.877l-1.103 0.143c1.596 1.93 3.574 3.508 5.81 4.636s4.681 1.78 7.181 1.915c0.109-0.004 0.216-0.031 0.314-0.081s0.182-0.121 0.248-0.208c0.066-0.087 0.112-0.188 0.135-0.294s0.021-0.218-0.005-0.324c-0.186-0.831-0.171-1.694 0.043-2.518s0.622-1.585 1.189-2.221c0.567-0.635 1.277-1.126 2.072-1.432s1.651-0.419 2.497-0.328c1.253 0.151 2.418 0.72 3.308 1.614 0.592 0.551 1.779 0 2.452-0.232 0.804-0.286 1.579-0.647 2.316-1.077l-1.070-0.812c-0.409 1.225-1.236 2.267-2.338 2.941-0.555 0.338-0.368 1.43 0.368 1.334 1.326-0.163 2.621-0.517 3.845-1.051 0.161-0.099 0.277-0.256 0.325-0.439s0.024-0.377-0.068-0.542c-0.098-0.164-0.256-0.283-0.441-0.333s-0.381-0.025-0.548 0.068z"></path>
        </symbol>
        <symbol id="icon-plus" viewBox="0 0 32 32">
            <path fill="#f5f5f5" style="fill: var(--color2, #f5f5f5)" d="M0 0h32v32h-32v-32z"></path>
            <path fill="none" stroke="#1c1c1c" stroke-width="3" stroke-miterlimit="4" stroke-linecap="round" stroke-linejoin="round" style="stroke: var(--color3, #1c1c1c)" d="M2.128 3.044l27.744 25.935M3.511 30.402l24.981-28.803"></path>
        </symbol>
        <symbol id="icon-pil" viewBox="0 0 32 32">
            <path d="M5.601 18.621c-1.952 1.953-1.952 5.119 0 7.072l0.708 0.707c1.952 1.951 5.118 1.951 7.071 0l5.656-5.658-7.778-7.778-5.657 5.657zM12.672 25.693c-1.562 1.562-4.095 1.562-5.656 0l-0.707-0.707c-1.562-1.562-1.562-4.096 0-5.658l4.949-4.949 6.364 6.363-4.95 4.951zM25.4 7.308l-0.707-0.707c-1.952-1.953-5.118-1.953-7.071 0l-5.657 5.656 7.778 7.778 5.657-5.656c1.953-1.953 1.953-5.119 0-7.071z"></path>
        </symbol>
        <symbol id="icon-chat" viewBox="0 0 42 32">
            <path d="M35.652 14.023c-0.264-0.082-0.544 0.062-0.628 0.325-0.083 0.263 0.062 0.544 0.325 0.628 3.908 1.245 5.651 3.102 5.651 6.024 0 2.599-2.371 4.616-3.783 5.588-0.136 0.094-0.217 0.247-0.217 0.412v3.823c-0.73-0.272-2.003-0.89-3.126-2.155-0.117-0.131-0.295-0.191-0.468-0.159-0.285 0.055-0.576 0.133-0.871 0.212-0.51 0.137-1.036 0.279-1.535 0.279-2.568 0-4.366-0.552-6.204-1.903-0.224-0.164-0.535-0.115-0.699 0.107-0.164 0.223-0.116 0.535 0.106 0.699 2.027 1.49 3.996 2.097 6.797 2.097 0.631 0 1.223-0.159 1.795-0.313 0.178-0.049 0.355-0.097 0.53-0.138 1.869 1.974 3.983 2.423 4.075 2.441 0.033 0.007 0.066 0.010 0.1 0.010 0.114 0 0.227-0.039 0.316-0.113 0.117-0.095 0.184-0.237 0.184-0.387v-4.239c2.582-1.841 4-4.057 4-6.261 0-3.381-2.017-5.598-6.348-6.977zM33 13.5c0-7.696-7.018-13.5-16.323-13.5-9.352 0-16.677 5.931-16.677 13.502 0 4.539 3.211 7.791 6 9.759v6.636c0 0.17 0.086 0.327 0.228 0.42 0.083 0.053 0.177 0.080 0.272 0.080 0.069 0 0.139-0.015 0.205-0.044 0.146-0.065 3.559-1.616 6.479-4.809 1.265 0.235 2.696 0.461 3.994 0.461 9.463 0 15.822-5.026 15.822-12.505zM17.177 25.005c-1.31 0-2.799-0.251-4.083-0.496-0.173-0.031-0.351 0.028-0.468 0.159-2.050 2.312-4.459 3.781-5.626 4.414v-6.082c0-0.165-0.081-0.318-0.217-0.412-2.638-1.815-5.783-4.863-5.783-9.086 0-7.011 6.886-12.502 15.677-12.502 8.736 0 15.323 5.374 15.323 12.5 0 6.882-5.957 11.505-14.823 11.505zM16.5 11.5c-1.103 0-2 0.897-2 2s0.897 2 2 2 2-0.897 2-2-0.897-2-2-2zM16.5 14.5c-0.551 0-1-0.448-1-1s0.449-1 1-1 1 0.448 1 1-0.449 1-1 1zM23.5 11.5c-1.103 0-2 0.897-2 2s0.897 2 2 2 2-0.897 2-2-0.897-2-2-2zM23.5 14.5c-0.551 0-1-0.448-1-1s0.449-1 1-1 1 0.448 1 1-0.449 1-1 1zM9.5 11.595c-1.103 0-2 0.897-2 2s0.897 2 2 2 2-0.897 2-2-0.897-2-2-2zM9.5 14.595c-0.551 0-1-0.448-1-1s0.449-1 1-1 1 0.448 1 1-0.449 1-1 1z"></path>
        </symbol>
        <symbol id="icon-lifesaver" viewBox="0 0 32 32">
            <path d="M5.738 2.796l-2.943 2.942c-0.195 0.196-0.195 0.512 0 0.707 0.098 0.098 0.226 0.146 0.354 0.146s0.256-0.049 0.354-0.146l2.943-2.942c0.195-0.195 0.195-0.512 0-0.707s-0.512-0.195-0.708 0zM28.496 25.553l-2.943 2.942c-0.195 0.195-0.195 0.512 0 0.707 0.098 0.098 0.226 0.146 0.354 0.146s0.256-0.049 0.354-0.146l2.943-2.942c0.195-0.195 0.195-0.512 0-0.707s-0.513-0.196-0.708 0zM26.652 2.992c-0.195-0.195-0.512-0.195-0.707 0s-0.195 0.512 0 0.707l2.747 2.746c0.098 0.098 0.226 0.146 0.354 0.146s0.256-0.049 0.354-0.146c0.195-0.195 0.195-0.512 0-0.707l-2.748-2.746zM2.992 25.945c-0.195 0.195-0.195 0.512 0 0.707l2.747 2.746c0.098 0.098 0.226 0.146 0.354 0.146s0.256-0.049 0.354-0.146c0.195-0.195 0.195-0.512 0-0.707l-2.747-2.746c-0.197-0.195-0.513-0.195-0.708 0zM4.532 9.86c-0.204 0.38-0.381 0.771-0.544 1.164-1.309 3.164-1.31 6.791-0.001 9.952 0.202 0.487 0.427 0.953 0.668 1.383 0.583 1.041 1.306 1.996 2.148 2.838 0.964 0.965 2.069 1.769 3.284 2.389 0.308 0.157 0.621 0.296 0.938 0.427 1.582 0.655 3.256 0.987 4.975 0.987s3.393-0.332 4.976-0.987c0.001 0 0.001-0.001 0.002-0.002 0.393-0.162 0.782-0.34 1.161-0.543 1.125-0.602 2.154-1.366 3.058-2.271 0.904-0.903 1.668-1.932 2.271-3.059 0.203-0.38 0.382-0.769 0.545-1.164 0 0 0-0.001 0-0.001 1.307-3.163 1.307-6.789-0.001-9.949-0.131-0.316-0.271-0.631-0.427-0.938-0.619-1.214-1.423-2.318-2.389-3.284-0.841-0.841-1.795-1.563-2.837-2.147-0.429-0.241-0.895-0.467-1.384-0.669-3.163-1.309-6.783-1.309-9.951 0.001 0 0-0.001 0-0.001 0-0.395 0.164-0.784 0.341-1.164 0.545-1.124 0.602-2.152 1.366-3.056 2.271-0.904 0.903-1.669 1.931-2.271 3.057zM14.1 11.414c0 0 0 0 0 0 0.432-0.178 0.877-0.295 1.322-0.347 0.466-0.055 0.939-0.043 1.402 0.035 0.368 0.061 0.73 0.165 1.077 0.307 0 0 0 0 0.001 0 0.604 0.25 1.146 0.612 1.611 1.077 0.461 0.461 0.822 1.003 1.073 1.612 0 0 0 0 0 0.001s0 0 0 0c0.211 0.511 0.335 1.042 0.37 1.58 0.019 0.297 0.011 0.599-0.023 0.896-0.052 0.446-0.168 0.891-0.347 1.322 0 0 0 0 0 0s0 0 0 0.001c-0.251 0.609-0.612 1.151-1.073 1.612-0.46 0.46-1.003 0.821-1.613 1.073 0 0 0 0 0 0-0.432 0.177-0.877 0.295-1.322 0.346-0.297 0.035-0.596 0.043-0.897 0.023-0.537-0.034-1.069-0.159-1.581-0.37-0.61-0.252-1.153-0.613-1.613-1.073-0.465-0.465-0.827-1.006-1.077-1.611-0.143-0.346-0.247-0.709-0.309-1.078-0.078-0.465-0.089-0.937-0.035-1.401 0.052-0.446 0.168-0.891 0.347-1.322 0 0 0 0 0 0s0 0 0-0.001c0.251-0.609 0.612-1.151 1.073-1.612 0.461-0.457 1.004-0.818 1.614-1.070zM27.271 11.873c0.966 2.648 0.966 5.604 0 8.254l-5.588-2.314c0.119-0.368 0.2-0.743 0.244-1.12 0.042-0.356 0.051-0.719 0.028-1.076-0.031-0.483-0.122-0.962-0.272-1.429l5.588-2.315zM10.116 16.989c0.047 0.279 0.114 0.555 0.199 0.824l-5.586 2.315c-0.966-2.648-0.965-5.604 0.001-8.254l5.587 2.314c-0.119 0.368-0.2 0.743-0.244 1.119-0.064 0.558-0.051 1.124 0.043 1.682zM7.51 24.49c-0.777-0.777-1.444-1.658-1.983-2.62-0.146-0.26-0.285-0.533-0.416-0.818l5.586-2.313c0.281 0.546 0.645 1.042 1.083 1.481 0.436 0.437 0.934 0.799 1.483 1.080l-2.316 5.591c-0.136-0.062-0.271-0.127-0.406-0.195-1.121-0.574-2.141-1.315-3.031-2.206zM11.873 27.271l2.315-5.589c0.467 0.15 0.946 0.241 1.428 0.272 0.358 0.021 0.718 0.015 1.078-0.028 0.376-0.044 0.75-0.126 1.118-0.244l2.315 5.589c-2.643 0.968-5.611 0.968-8.254 0zM24.49 24.49c-0.834 0.835-1.784 1.54-2.824 2.097-0.202 0.108-0.407 0.209-0.614 0.304l-2.316-5.591c0.55-0.281 1.047-0.643 1.483-1.080 0.437-0.436 0.799-0.934 1.080-1.483l5.59 2.315c-0.095 0.208-0.195 0.413-0.304 0.615-0.555 1.040-1.26 1.989-2.095 2.823zM24.49 7.51c0.892 0.892 1.633 1.911 2.205 3.032 0.069 0.134 0.133 0.269 0.196 0.406l-5.591 2.315c-0.282-0.549-0.643-1.047-1.080-1.483-0.439-0.439-0.936-0.803-1.482-1.084l2.315-5.586c0.286 0.132 0.56 0.271 0.819 0.417 0.961 0.539 1.842 1.206 2.618 1.983zM20.128 4.729l-2.315 5.587c-0.27-0.086-0.546-0.152-0.824-0.199-0.553-0.094-1.12-0.108-1.683-0.042-0.376 0.044-0.75 0.126-1.118 0.244l-2.315-5.589c2.645-0.969 5.612-0.969 8.255-0.001zM10.333 5.413c0.202-0.108 0.407-0.209 0.615-0.303l2.315 5.59c-0.55 0.281-1.047 0.644-1.483 1.080s-0.799 0.934-1.080 1.483l-5.59-2.315c0.094-0.208 0.194-0.413 0.303-0.615 0.557-1.040 1.262-1.989 2.097-2.823 0.834-0.835 1.784-1.54 2.823-2.097zM23.418 29.041c-4.576 2.607-10.261 2.607-14.837 0-0.241-0.136-0.546-0.054-0.682 0.188-0.137 0.239-0.053 0.545 0.187 0.682 2.441 1.391 5.177 2.085 7.914 2.085s5.473-0.694 7.914-2.085c0.24-0.137 0.324-0.442 0.187-0.682-0.138-0.242-0.443-0.324-0.683-0.188zM2.090 8.087c-2.781 4.881-2.781 10.945 0 15.826 0.092 0.162 0.261 0.253 0.435 0.253 0.084 0 0.169-0.021 0.247-0.065 0.24-0.137 0.324-0.442 0.187-0.682-2.607-4.576-2.607-10.262 0-14.838 0.137-0.239 0.053-0.545-0.187-0.682-0.241-0.135-0.546-0.052-0.682 0.188zM29.91 23.913c2.781-4.881 2.781-10.945 0-15.826-0.137-0.24-0.444-0.323-0.682-0.188-0.24 0.137-0.324 0.442-0.187 0.682 2.607 4.576 2.607 10.262 0 14.838-0.137 0.239-0.053 0.545 0.187 0.682 0.078 0.044 0.163 0.065 0.247 0.065 0.174 0 0.343-0.091 0.435-0.253zM8.582 2.959c4.576-2.607 10.261-2.607 14.837 0 0.078 0.044 0.163 0.065 0.247 0.065 0.174 0 0.343-0.091 0.435-0.253 0.137-0.239 0.053-0.545-0.187-0.682-4.882-2.781-10.945-2.781-15.827 0-0.24 0.137-0.324 0.442-0.187 0.682 0.136 0.241 0.441 0.322 0.682 0.188z"></path>
        </symbol>
        <symbol id="icon-genius" viewBox="0 0 30 32">
            <path d="M0.567 24c0.785 1.36 2.548 2.079 5.097 2.079 0 0 0 0 0.001 0 1.146 0 2.407-0.161 3.722-0.438 1.266 3.879 3.287 6.359 5.613 6.359s4.347-2.48 5.613-6.359c1.316 0.276 2.577 0.438 3.723 0.438 0 0 0 0 0 0 2.548 0 4.311-0.719 5.096-2.079 1.016-1.761 0.117-4.72-2.966-8 3.083-3.28 3.982-6.239 2.966-8-0.785-1.36-2.548-2.079-5.097-2.079-1.146 0-2.408 0.161-3.723 0.438-1.265-3.879-3.286-6.359-5.612-6.359s-4.347 2.48-5.613 6.359c-1.316-0.277-2.578-0.438-3.723-0.438-2.549 0-4.312 0.719-5.097 2.079-1.016 1.761-0.117 4.72 2.966 8-3.083 3.28-3.983 6.239-2.966 8zM15 31c-1.839 0-3.516-2.199-4.627-5.579 1.503-0.381 3.066-0.92 4.627-1.599 1.561 0.679 3.124 1.218 4.627 1.599-1.111 3.38-2.788 5.579-4.627 5.579zM9 16c0-1.164 0.062-2.297 0.168-3.393 0.893-0.622 1.837-1.228 2.832-1.803 0.984-0.568 1.991-1.077 3-1.533 1.009 0.455 2.016 0.964 3 1.533 0.995 0.574 1.938 1.18 2.832 1.803 0.106 1.096 0.168 2.229 0.168 3.393s-0.062 2.297-0.168 3.393c-0.893 0.622-1.837 1.228-2.832 1.803-0.984 0.568-1.991 1.077-3 1.533-1.009-0.455-2.016-0.964-3-1.533-0.995-0.574-1.938-1.18-2.832-1.803-0.106-1.096-0.168-2.229-0.168-3.393zM8.098 18.623c-1.146-0.861-2.184-1.745-3.086-2.623 0.902-0.878 1.94-1.762 3.086-2.623-0.059 0.854-0.098 1.725-0.098 2.623s0.039 1.769 0.098 2.623zM9.321 11.286c0.184-1.341 0.442-2.604 0.764-3.754 1.195 0.301 2.435 0.717 3.682 1.219-0.762 0.369-1.522 0.757-2.267 1.187-0.773 0.447-1.488 0.897-2.179 1.348zM16.232 8.751c1.247-0.502 2.487-0.918 3.682-1.219 0.322 1.15 0.58 2.413 0.764 3.754-0.69-0.451-1.406-0.901-2.179-1.348-0.744-0.43-1.504-0.818-2.267-1.187zM21.902 13.377c1.147 0.861 2.184 1.744 3.086 2.623-0.902 0.878-1.94 1.762-3.086 2.623 0.059-0.854 0.098-1.725 0.098-2.623s-0.039-1.769-0.098-2.623zM20.679 20.714c-0.184 1.341-0.442 2.604-0.764 3.754-1.195-0.301-2.435-0.717-3.682-1.219 0.763-0.368 1.523-0.757 2.268-1.187 0.772-0.447 1.487-0.897 2.178-1.348zM11.5 22.062c0.745 0.43 1.505 0.819 2.268 1.187-1.247 0.502-2.487 0.918-3.682 1.219-0.322-1.15-0.58-2.413-0.764-3.754 0.69 0.451 1.405 0.901 2.178 1.348zM28.567 23.5c-0.588 1.019-2.090 1.579-4.23 1.579-1.056 0-2.218-0.146-3.432-0.395 0.396-1.424 0.693-3.008 0.877-4.708 1.546-1.084 2.851-2.168 3.94-3.229 2.532 2.682 3.726 5.226 2.845 6.753zM24.336 6.921c2.14 0 3.643 0.561 4.23 1.579 0.882 1.527-0.313 4.071-2.845 6.753-1.089-1.060-2.394-2.145-3.94-3.229-0.184-1.7-0.481-3.284-0.877-4.708 1.214-0.249 2.377-0.395 3.432-0.395zM15 1c1.839 0 3.516 2.199 4.627 5.579-1.503 0.381-3.066 0.92-4.627 1.599-1.561-0.679-3.124-1.218-4.627-1.599 1.111-3.38 2.788-5.579 4.627-5.579zM1.433 8.5c0.588-1.019 2.090-1.579 4.23-1.579 1.056 0 2.218 0.146 3.432 0.395-0.396 1.424-0.693 3.008-0.877 4.708-1.546 1.084-2.851 2.168-3.94 3.229-2.532-2.682-3.726-5.226-2.845-6.753zM4.278 16.747c1.089 1.060 2.394 2.145 3.94 3.229 0.184 1.7 0.481 3.284 0.877 4.708-1.213 0.249-2.375 0.395-3.431 0.395 0 0-0.001 0-0.001 0-2.14 0-3.643-0.561-4.23-1.579-0.881-1.527 0.313-4.071 2.845-6.753zM15 18.5c1.378 0 2.5-1.121 2.5-2.5s-1.122-2.5-2.5-2.5-2.5 1.121-2.5 2.5 1.122 2.5 2.5 2.5zM15 14.5c0.827 0 1.5 0.673 1.5 1.5s-0.673 1.5-1.5 1.5-1.5-0.673-1.5-1.5 0.673-1.5 1.5-1.5z"></path>
        </symbol>
        <symbol id="icon-quotes-left" viewBox="0 0 32 32">
            <path d="M7.031 14c3.866 0 7 3.134 7 7s-3.134 7-7 7-7-3.134-7-7l-0.031-1c0-7.732 6.268-14 14-14v4c-2.671 0-5.182 1.040-7.071 2.929-0.364 0.364-0.695 0.751-0.995 1.157 0.357-0.056 0.724-0.086 1.097-0.086zM25.031 14c3.866 0 7 3.134 7 7s-3.134 7-7 7-7-3.134-7-7l-0.031-1c0-7.732 6.268-14 14-14v4c-2.671 0-5.182 1.040-7.071 2.929-0.364 0.364-0.695 0.751-0.995 1.157 0.358-0.056 0.724-0.086 1.097-0.086z"></path>
        </symbol>
        <symbol id="icon-leaf" viewBox="0 0 32 32">
            <path d="M31.604 4.203c-3.461-2.623-8.787-4.189-14.247-4.189-6.754 0-12.257 2.358-15.099 6.469-1.335 1.931-2.073 4.217-2.194 6.796-0.108 2.296 0.278 4.835 1.146 7.567 2.965-8.887 11.244-15.847 20.79-15.847 0 0-8.932 2.351-14.548 9.631-0.003 0.004-0.078 0.097-0.207 0.272-1.128 1.509-2.111 3.224-2.846 5.166-1.246 2.963-2.4 7.030-2.4 11.931h4c0 0-0.607-3.819 0.449-8.212 1.747 0.236 3.308 0.353 4.714 0.353 3.677 0 6.293-0.796 8.231-2.504 1.736-1.531 2.694-3.587 3.707-5.764 1.548-3.325 3.302-7.094 8.395-10.005 0.292-0.167 0.48-0.468 0.502-0.804s-0.126-0.659-0.394-0.862z"></path>
        </symbol>
        <symbol id="icon-instagram" viewBox="0 0 32 32">
            <path d="M16 2.881c4.275 0 4.781 0.019 6.462 0.094 1.563 0.069 2.406 0.331 2.969 0.55 0.744 0.288 1.281 0.638 1.837 1.194 0.563 0.563 0.906 1.094 1.2 1.838 0.219 0.563 0.481 1.412 0.55 2.969 0.075 1.688 0.094 2.194 0.094 6.463s-0.019 4.781-0.094 6.463c-0.069 1.563-0.331 2.406-0.55 2.969-0.288 0.744-0.637 1.281-1.194 1.837-0.563 0.563-1.094 0.906-1.837 1.2-0.563 0.219-1.413 0.481-2.969 0.55-1.688 0.075-2.194 0.094-6.463 0.094s-4.781-0.019-6.463-0.094c-1.563-0.069-2.406-0.331-2.969-0.55-0.744-0.288-1.281-0.637-1.838-1.194-0.563-0.563-0.906-1.094-1.2-1.837-0.219-0.563-0.481-1.413-0.55-2.969-0.075-1.688-0.094-2.194-0.094-6.463s0.019-4.781 0.094-6.463c0.069-1.563 0.331-2.406 0.55-2.969 0.288-0.744 0.638-1.281 1.194-1.838 0.563-0.563 1.094-0.906 1.838-1.2 0.563-0.219 1.412-0.481 2.969-0.55 1.681-0.075 2.188-0.094 6.463-0.094zM16 0c-4.344 0-4.887 0.019-6.594 0.094-1.7 0.075-2.869 0.35-3.881 0.744-1.056 0.412-1.95 0.956-2.837 1.85-0.894 0.888-1.438 1.781-1.85 2.831-0.394 1.019-0.669 2.181-0.744 3.881-0.075 1.713-0.094 2.256-0.094 6.6s0.019 4.887 0.094 6.594c0.075 1.7 0.35 2.869 0.744 3.881 0.413 1.056 0.956 1.95 1.85 2.837 0.887 0.887 1.781 1.438 2.831 1.844 1.019 0.394 2.181 0.669 3.881 0.744 1.706 0.075 2.25 0.094 6.594 0.094s4.888-0.019 6.594-0.094c1.7-0.075 2.869-0.35 3.881-0.744 1.050-0.406 1.944-0.956 2.831-1.844s1.438-1.781 1.844-2.831c0.394-1.019 0.669-2.181 0.744-3.881 0.075-1.706 0.094-2.25 0.094-6.594s-0.019-4.887-0.094-6.594c-0.075-1.7-0.35-2.869-0.744-3.881-0.394-1.063-0.938-1.956-1.831-2.844-0.887-0.887-1.781-1.438-2.831-1.844-1.019-0.394-2.181-0.669-3.881-0.744-1.712-0.081-2.256-0.1-6.6-0.1v0z"></path>
            <path d="M16 7.781c-4.537 0-8.219 3.681-8.219 8.219s3.681 8.219 8.219 8.219 8.219-3.681 8.219-8.219c0-4.537-3.681-8.219-8.219-8.219zM16 21.331c-2.944 0-5.331-2.387-5.331-5.331s2.387-5.331 5.331-5.331c2.944 0 5.331 2.387 5.331 5.331s-2.387 5.331-5.331 5.331z"></path>
            <path d="M26.462 7.456c0 1.060-0.859 1.919-1.919 1.919s-1.919-0.859-1.919-1.919c0-1.060 0.859-1.919 1.919-1.919s1.919 0.859 1.919 1.919z"></path>
        </symbol>
    </defs>
</svg>
