<svg width="32" height="32" viewBox="0 0 32 32" fill="none" xmlns="http://www.w3.org/2000/svg">
<path d="M30.3898 6.6073C29.3952 7.03888 28.3444 7.32726 27.2689 7.46382L27.6365 8.79822C29.0521 7.93174 30.1129 6.58945 30.6288 5.0119C30.6557 4.87811 30.6448 4.73948 30.5973 4.61153C30.5499 4.48358 30.4678 4.37135 30.3602 4.28741C30.2526 4.20347 30.1238 4.15113 29.9881 4.13626C29.8525 4.12138 29.7154 4.14455 29.5921 4.20317C28.4523 4.86933 27.2102 5.34256 25.9161 5.60374L26.6145 5.78754C25.8313 4.95719 24.8511 4.33796 23.7648 3.98724C22.6785 3.63652 21.5213 3.56564 20.4003 3.78119C19.2793 3.99673 18.2309 4.49171 17.3521 5.22028C16.4734 5.94885 15.7927 6.88742 15.3732 7.94905C14.8693 9.24404 14.7669 10.6607 15.0791 12.0147L15.7702 11.1104C13.4518 10.9782 11.1862 10.3651 9.11739 9.3101C7.0486 8.25514 5.22188 6.78139 3.75328 4.98249C3.67352 4.90816 3.57822 4.85249 3.47429 4.81953C3.37036 4.78657 3.26041 4.77714 3.15238 4.79192C3.04435 4.80669 2.94097 4.84531 2.84971 4.90498C2.75845 4.96464 2.68161 5.04386 2.62474 5.13689C1.77474 6.64184 1.52252 8.41166 1.91828 10.0942C2.31404 11.7766 3.32876 13.2485 4.76052 14.2167L5.12812 12.8823C4.29314 12.8445 3.47752 12.6183 2.74238 12.2206C2.63324 12.1607 2.51067 12.1294 2.38616 12.1298C2.26165 12.1302 2.13928 12.1622 2.03053 12.2229C1.92178 12.2835 1.8302 12.3707 1.76439 12.4764C1.69858 12.5821 1.66069 12.7028 1.65427 12.8272C1.65096 14.3947 2.18466 15.9161 3.16653 17.1381C4.14839 18.3601 5.51918 19.2089 7.05069 19.5433V18.1611C6.28048 18.3641 5.47563 18.3992 4.69067 18.264C4.19073 18.1758 3.62095 18.5838 3.80842 19.1463C4.25153 20.4948 5.10017 21.6736 6.23843 22.5217C7.37668 23.3698 8.74903 23.8458 10.168 23.8847L9.66067 22.6605C7.24788 24.4961 4.21634 25.3225 1.20579 24.9654C0.470586 24.8809 0.294136 25.9506 0.838189 26.2998C3.34796 27.8727 6.1997 28.8178 9.15208 29.0552C12.1045 29.2926 15.0706 28.8153 17.7994 27.6636C22.1335 25.8256 25.4382 22.1496 27.177 17.7935C28.1207 15.4332 28.5566 12.9005 28.4562 10.3605L28.0886 10.9818C29.3709 10.0478 30.4816 8.89853 31.3713 7.58512C31.8897 6.81683 30.6361 6.11471 30.1362 6.84992C29.6696 7.53319 29.1351 8.16747 28.5408 8.74308C28.2468 9.028 27.9376 9.29674 27.6144 9.54813C27.4512 9.65439 27.2996 9.77761 27.1623 9.91573C27.0284 10.1359 26.9788 10.397 27.0226 10.6509C27.0535 11.777 26.966 12.9031 26.7616 14.0108C26.3451 16.2344 25.5025 18.3564 24.2803 20.2601C22.9444 22.3548 21.1405 24.1108 19.0105 25.3898C16.8806 26.6688 14.4828 27.4358 12.006 27.6305C8.33272 27.934 4.66078 27.0305 1.54766 25.0573L1.18006 26.3954C4.57686 26.7591 7.98138 25.7817 10.6679 23.6715C11.1899 23.2671 10.7194 22.4657 10.1606 22.4473C9.05466 22.4169 7.98462 22.0482 7.09466 21.391C6.2047 20.7337 5.5376 19.8194 5.18326 18.7713L4.30101 19.6535C5.33636 19.8477 6.40167 19.8125 7.42197 19.5506C8.08733 19.3778 8.12409 18.3155 7.42197 18.1684C6.19395 17.916 5.09136 17.2459 4.30183 16.272C3.5123 15.2982 3.08462 14.0808 3.0916 12.8272L2.02187 13.4484C2.98041 13.9654 4.04373 14.2582 5.1318 14.3049C5.89274 14.338 6.04345 13.3418 5.4994 12.9668C4.38669 12.1996 3.60138 11.0438 3.29796 9.72674C2.99455 8.40968 3.195 7.02675 3.85989 5.85004L2.75708 5.9934C4.35272 7.92324 6.33082 9.50161 8.56671 10.629C10.8026 11.7565 13.2478 12.4085 15.7482 12.5441C15.8574 12.5406 15.9645 12.5128 16.0617 12.4627C16.1588 12.4126 16.2436 12.3415 16.3098 12.2545C16.376 12.1676 16.4219 12.0669 16.4444 11.96C16.4668 11.853 16.465 11.7423 16.4393 11.6361C16.2534 10.8052 16.2682 9.94188 16.4824 9.11778C16.6966 8.29368 17.1041 7.53247 17.6711 6.89721C18.2381 6.26195 18.9482 5.77092 19.7428 5.4648C20.5373 5.15868 21.3934 5.04627 22.2401 5.13689C23.4928 5.2882 24.6581 5.85663 25.5485 6.75067C26.1403 7.30207 27.3277 6.75067 28.0004 6.51908C28.8043 6.23313 29.5797 5.87252 30.3163 5.442L29.2466 4.62959C28.8381 5.85469 28.0101 6.89619 26.9086 7.57042C26.3535 7.90862 26.541 9.0004 27.2762 8.90482C28.602 8.74201 29.8972 8.38788 31.1214 7.85348C31.2821 7.75427 31.3986 7.59698 31.4465 7.41423C31.4944 7.23148 31.4701 7.0373 31.3787 6.87197C31.2806 6.708 31.1225 6.58868 30.9379 6.53927C30.7533 6.48986 30.5567 6.51426 30.3898 6.6073Z" fill="#1A1A1A"/>
</svg>
